<svg width="162" height="36" viewBox="0 0 162 36" fill="none" xmlns="http://www.w3.org/2000/svg">
<path d="M19.1414 17.73C18.5984 16.83 17.8744 16.11 16.9241 15.525C16.2906 15.12 15.6118 14.805 14.933 14.58C15.9738 14.13 16.7883 13.5 17.4219 12.735C18.1911 11.79 18.5984 10.71 18.5984 9.40501C18.5984 7.96501 18.1911 6.79501 17.4219 5.89501C16.6526 4.95001 15.6118 4.23001 14.2543 3.78001C12.942 3.28501 11.4034 3.06001 9.63861 3.06001H0.452576V27.945H10.2269C12.2179 27.945 13.9375 27.72 15.3855 27.225C16.8336 26.73 17.9649 25.965 18.7341 24.93C19.5487 23.895 19.9559 22.59 19.9559 20.925C20.0012 19.71 19.6844 18.63 19.1414 17.73ZM9.00509 7.74001C10.0459 7.74001 10.8604 7.96501 11.4487 8.37001C12.0369 8.77501 12.3084 9.45001 12.3084 10.305C12.3084 10.89 12.1727 11.34 11.9012 11.745C11.6297 12.105 11.2677 12.42 10.7699 12.645C10.2721 12.87 9.72911 12.96 9.00509 12.96H6.51626V7.74001H9.00509ZM13.1682 22.005C12.8062 22.455 12.3084 22.77 11.7202 22.995C11.0867 23.175 10.4079 23.265 9.59336 23.265H6.51626V17.145H9.59336C10.1816 17.145 10.7246 17.19 11.2224 17.325C11.7202 17.415 12.1727 17.595 12.5347 17.82C12.8967 18.045 13.2135 18.36 13.4397 18.765C13.666 19.17 13.7565 19.575 13.7565 20.115C13.7565 20.925 13.5302 21.555 13.1682 22.005Z" fill="#064CFF"/>
<path d="M21.947 5.44501C21.947 4.59001 22.2638 3.91501 22.8973 3.37501C23.5308 2.83501 24.2548 2.56501 25.1146 2.56501C25.9744 2.56501 26.7436 2.83501 27.3319 3.37501C27.9654 3.91501 28.2822 4.59001 28.2822 5.44501C28.2822 6.30001 27.9654 6.97501 27.3319 7.56001C26.7436 8.10001 26.0196 8.37001 25.1146 8.37001C24.2548 8.37001 23.5308 8.10001 22.8973 7.56001C22.2185 7.02001 21.947 6.30001 21.947 5.44501ZM22.4448 11.61H27.6939V27.945H22.4448V11.61Z" fill="#064CFF"/>
<path d="M48.3738 15.12C47.6498 13.86 46.6543 12.915 45.4777 12.24C44.3012 11.565 43.0341 11.25 41.6766 11.25C40.3191 11.25 39.0973 11.61 38.0112 12.285C37.242 12.78 36.5632 13.455 36.0654 14.22V0.225006H30.6805V27.945H36.0654V25.335C36.6084 26.145 37.242 26.775 38.0112 27.27C39.0973 27.945 40.3191 28.305 41.6766 28.305C43.0341 28.305 44.3012 27.99 45.4777 27.315C46.6543 26.64 47.6498 25.695 48.3738 24.435C49.1431 23.175 49.5051 21.6 49.5051 19.8C49.5051 17.91 49.0978 16.38 48.3738 15.12ZM43.2604 22.005C42.8984 22.635 42.4459 23.085 41.8123 23.445C41.2241 23.76 40.5453 23.94 39.8665 23.94C39.233 23.94 38.6448 23.76 38.0565 23.445C37.4682 23.13 37.0157 22.635 36.6084 22.005C36.2464 21.375 36.0202 20.61 36.0202 19.71C36.0202 18.855 36.2012 18.09 36.6084 17.46C36.9705 16.83 37.4682 16.335 38.0565 16.02C38.6448 15.705 39.2783 15.525 39.8665 15.525C40.5906 15.525 41.2241 15.705 41.8123 16.065C42.4006 16.38 42.8984 16.875 43.2604 17.505C43.6224 18.135 43.8034 18.855 43.8034 19.71C43.8034 20.565 43.6224 21.375 43.2604 22.005Z" fill="#064CFF"/>
<path d="M50.9984 5.44501C50.9984 4.59001 51.3151 3.91501 51.9487 3.37501C52.5822 2.83501 53.3062 2.56501 54.166 2.56501C55.0258 2.56501 55.795 2.83501 56.3833 3.37501C57.0168 3.91501 57.3336 4.59001 57.3336 5.44501C57.3336 6.30001 57.0168 6.97501 56.3833 7.56001C55.795 8.10001 55.071 8.37001 54.166 8.37001C53.3062 8.37001 52.5822 8.10001 51.9487 7.56001C51.3151 7.02001 50.9984 6.30001 50.9984 5.44501ZM51.5414 11.61H56.7453V27.945H51.5414V11.61Z" fill="#064CFF"/>
<path d="M84.8917 17.415V27.945H79.4615V18C79.4615 17.01 79.2805 16.245 78.9637 15.75C78.647 15.21 78.1492 14.985 77.38 14.985C76.8822 14.985 76.4749 15.12 76.1129 15.345C75.7509 15.57 75.4794 15.885 75.2531 16.335C75.0721 16.785 74.9816 17.325 74.9816 18V27.945H69.5515V18C69.5515 17.01 69.3704 16.245 69.0537 15.75C68.7369 15.21 68.2392 14.985 67.4699 14.985C66.9721 14.985 66.5649 15.12 66.2029 15.345C65.8408 15.57 65.5693 15.885 65.3431 16.335C65.1621 16.785 65.0716 17.325 65.0716 18V27.945H59.8677V11.61H65.0716V14.04C65.5241 13.185 66.1576 12.465 66.9269 11.97C67.7414 11.475 68.6917 11.205 69.823 11.205C71.09 11.205 72.1308 11.43 72.9001 11.925C73.6693 12.375 74.2123 13.05 74.5291 13.905C75.1174 13.05 75.8867 12.375 76.7464 11.925C77.6062 11.43 78.647 11.205 79.733 11.205C81.0001 11.205 82.0408 11.475 82.7649 11.97C83.5341 12.465 84.0772 13.14 84.3939 14.085C84.7107 14.985 84.8917 16.11 84.8917 17.415Z" fill="#0F0F0F"/>
<path d="M86.7017 19.8C86.7017 18.09 87.109 16.56 87.9235 15.3C88.7381 14.04 89.8693 13.005 91.2721 12.33C92.7202 11.61 94.304 11.25 96.114 11.25C97.9241 11.25 99.5079 11.61 100.911 12.33C102.359 13.05 103.445 14.04 104.259 15.3C105.074 16.56 105.526 18.09 105.526 19.8C105.526 21.51 105.119 22.995 104.259 24.3C103.445 25.56 102.313 26.595 100.911 27.27C99.5079 27.99 97.9241 28.35 96.114 28.35C94.304 28.35 92.7202 27.99 91.2721 27.27C89.8241 26.55 88.7381 25.56 87.9235 24.3C87.109 22.995 86.7017 21.465 86.7017 19.8ZM92.2677 19.8C92.2677 20.655 92.4487 21.375 92.8107 22.005C93.1727 22.59 93.6252 23.04 94.2135 23.4C94.8017 23.715 95.4353 23.895 96.1593 23.895C96.8381 23.895 97.4716 23.715 98.0598 23.4C98.6481 23.085 99.1006 22.59 99.4626 22.005C99.8246 21.375 100.006 20.655 100.006 19.8C100.006 18.945 99.8246 18.225 99.4626 17.595C99.1459 16.965 98.6481 16.515 98.0598 16.155C97.4716 15.84 96.8381 15.66 96.1593 15.66C95.4353 15.66 94.8017 15.84 94.2135 16.155C93.6252 16.47 93.1727 16.965 92.8107 17.595C92.4487 18.225 92.2677 18.945 92.2677 19.8Z" fill="#0F0F0F"/>
<path d="M118.016 18C118.016 17.01 117.835 16.29 117.427 15.75C117.065 15.21 116.477 14.985 115.617 14.985C115.029 14.985 114.531 15.12 114.124 15.345C113.717 15.57 113.355 15.93 113.129 16.38C112.902 16.83 112.767 17.37 112.767 18V27.945H107.336V11.61H112.767V14.085C113.264 13.185 113.898 12.465 114.712 11.97C115.527 11.475 116.568 11.205 117.789 11.205C119.826 11.205 121.319 11.745 122.269 12.825C123.22 13.905 123.672 15.435 123.672 17.415V27.945H118.061C118.016 27.945 118.016 20.475 118.016 18Z" fill="#0F0F0F"/>
<path d="M138.831 22.32C138.424 23.04 137.881 23.58 137.202 23.94C136.524 24.3 135.709 24.48 134.759 24.48C133.944 24.48 133.22 24.3 132.632 23.94C132.044 23.58 131.636 22.995 131.365 22.32C131.184 21.915 131.093 21.465 131.003 20.97H143.537C143.583 20.79 143.628 20.61 143.628 20.385C143.628 20.115 143.628 19.845 143.628 19.62C143.628 17.865 143.266 16.38 142.587 15.12C141.908 13.905 140.913 12.96 139.601 12.33C138.288 11.655 136.659 11.34 134.759 11.34C132.858 11.34 131.184 11.7 129.781 12.375C128.378 13.05 127.338 14.04 126.613 15.345C125.889 16.605 125.527 18.135 125.527 19.89C125.527 21.6 125.889 23.13 126.659 24.39C127.428 25.65 128.514 26.685 129.872 27.36C131.274 28.035 132.949 28.395 134.849 28.395C136.931 28.395 138.741 27.99 140.189 27.18C141.682 26.37 142.813 25.155 143.673 23.535L138.831 22.32ZM132.632 15.39C133.175 15.03 133.854 14.85 134.668 14.85C135.302 14.85 135.89 14.985 136.343 15.255C136.84 15.525 137.202 15.93 137.429 16.47C137.655 16.875 137.745 17.37 137.791 17.91H131.093C131.139 17.595 131.229 17.28 131.32 16.965C131.636 16.29 132.044 15.705 132.632 15.39Z" fill="#0F0F0F"/>
<path d="M156.298 11.61L152.407 21.24L148.515 11.61H142.587L149.692 26.64L145.664 35.775H151.094L161.819 11.61H156.298Z" fill="#0F0F0F"/>
</svg>
